<svg width="100" height="100" viewBox="0 0 100 100" fill="none" xmlns="http://www.w3.org/2000/svg">
<rect width="100" height="100" rx="15" fill="white"/>
<path d="M22 20H79L77 77L50.5 89L24 77L22 20Z" fill="#1C76B8"/>
<path d="M68.5 34H32L33 41.5H62.5L62 49H33L34 55H62L60.5 66L51.5 68.5L40.5 66V61.5L33 61.1654L34 71L51.5 76L66.5 71L68.5 34Z" fill="white" stroke="white"/>
<path d="M44.4588 11.3281H42.5923C42.5582 11.0866 42.4886 10.8722 42.3835 10.6847C42.2784 10.4943 42.1435 10.3324 41.9787 10.1989C41.8139 10.0653 41.6236 9.96307 41.4077 9.89205C41.1946 9.82102 40.9631 9.78551 40.7131 9.78551C40.2614 9.78551 39.8679 9.89773 39.5327 10.1222C39.1974 10.3437 38.9375 10.6676 38.7528 11.0938C38.5682 11.517 38.4759 12.0312 38.4759 12.6364C38.4759 13.2585 38.5682 13.7812 38.7528 14.2045C38.9403 14.6278 39.2017 14.9474 39.5369 15.1634C39.8722 15.3793 40.2599 15.4872 40.7003 15.4872C40.9474 15.4872 41.1761 15.4545 41.3864 15.3892C41.5994 15.3239 41.7884 15.2287 41.9531 15.1037C42.1179 14.9759 42.2543 14.821 42.3622 14.6392C42.473 14.4574 42.5497 14.25 42.5923 14.017L44.4588 14.0256C44.4105 14.4261 44.2898 14.8125 44.0966 15.1847C43.9063 15.554 43.6491 15.8849 43.3253 16.1776C43.0043 16.4673 42.6207 16.6974 42.1747 16.8679C41.7315 17.0355 41.2301 17.1193 40.6705 17.1193C39.892 17.1193 39.196 16.9432 38.5824 16.5909C37.9716 16.2386 37.4886 15.7287 37.1335 15.0611C36.7812 14.3935 36.6051 13.5852 36.6051 12.6364C36.6051 11.6847 36.7841 10.875 37.142 10.2074C37.5 9.53977 37.9858 9.03125 38.5994 8.68182C39.2131 8.32955 39.9034 8.15341 40.6705 8.15341C41.1761 8.15341 41.6449 8.22443 42.0767 8.36648C42.5114 8.50852 42.8963 8.71591 43.2315 8.98864C43.5668 9.25852 43.8395 9.58949 44.0497 9.98153C44.2628 10.3736 44.3991 10.8224 44.4588 11.3281ZM52.1963 10.7827C52.1622 10.4389 52.0159 10.1719 51.7574 9.98153C51.4989 9.79119 51.148 9.69602 50.7049 9.69602C50.4037 9.69602 50.1495 9.73864 49.9421 9.82386C49.7347 9.90625 49.5756 10.0213 49.4648 10.169C49.3568 10.3168 49.3029 10.4844 49.3029 10.6719C49.2972 10.8281 49.3299 10.9645 49.4009 11.081C49.4747 11.1974 49.5756 11.2983 49.7034 11.3835C49.8313 11.4659 49.979 11.5384 50.1466 11.6009C50.3142 11.6605 50.4932 11.7116 50.6836 11.7543L51.4676 11.9418C51.8483 12.027 52.1978 12.1406 52.5159 12.2827C52.8341 12.4247 53.1097 12.5994 53.3426 12.8068C53.5756 13.0142 53.756 13.2585 53.8838 13.5398C54.0145 13.821 54.0813 14.1435 54.0841 14.5071C54.0813 15.0412 53.9449 15.5043 53.675 15.8963C53.408 16.2855 53.0216 16.5881 52.5159 16.804C52.0131 17.017 51.4066 17.1236 50.6963 17.1236C49.9918 17.1236 49.3782 17.0156 48.8554 16.7997C48.3355 16.5838 47.9293 16.2642 47.6367 15.8409C47.3469 15.4148 47.1949 14.8878 47.1807 14.2599H48.9662C48.9861 14.5526 49.0699 14.7969 49.2176 14.9929C49.3682 15.1861 49.5685 15.3324 49.8185 15.4318C50.0713 15.5284 50.3568 15.5767 50.675 15.5767C50.9875 15.5767 51.2588 15.5312 51.4889 15.4403C51.7219 15.3494 51.9023 15.223 52.0301 15.0611C52.158 14.8991 52.2219 14.7131 52.2219 14.5028C52.2219 14.3068 52.1637 14.142 52.0472 14.0085C51.9336 13.875 51.7659 13.7614 51.5443 13.6676C51.3256 13.5739 51.0571 13.4886 50.7389 13.4119L49.7887 13.1733C49.0529 12.9943 48.4719 12.7145 48.0458 12.3338C47.6196 11.9531 47.408 11.4403 47.4108 10.7955C47.408 10.267 47.5486 9.8054 47.8327 9.41051C48.1196 9.01562 48.5131 8.70739 49.0131 8.4858C49.5131 8.2642 50.0813 8.15341 50.7176 8.15341C51.3654 8.15341 51.9307 8.2642 52.4137 8.4858C52.8995 8.70739 53.2773 9.01562 53.5472 9.41051C53.8171 9.8054 53.9563 10.2628 53.9648 10.7827H52.1963ZM61.7396 10.7827C61.7055 10.4389 61.5592 10.1719 61.3007 9.98153C61.0422 9.79119 60.6913 9.69602 60.2481 9.69602C59.947 9.69602 59.6927 9.73864 59.4854 9.82386C59.278 9.90625 59.1189 10.0213 59.0081 10.169C58.9001 10.3168 58.8462 10.4844 58.8462 10.6719C58.8405 10.8281 58.8731 10.9645 58.9442 11.081C59.018 11.1974 59.1189 11.2983 59.2467 11.3835C59.3746 11.4659 59.5223 11.5384 59.6899 11.6009C59.8575 11.6605 60.0365 11.7116 60.2268 11.7543L61.0109 11.9418C61.3916 12.027 61.741 12.1406 62.0592 12.2827C62.3774 12.4247 62.653 12.5994 62.8859 12.8068C63.1189 13.0142 63.2993 13.2585 63.4271 13.5398C63.5578 13.821 63.6246 14.1435 63.6274 14.5071C63.6246 15.0412 63.4882 15.5043 63.2183 15.8963C62.9513 16.2855 62.5649 16.5881 62.0592 16.804C61.5564 17.017 60.9498 17.1236 60.2396 17.1236C59.5351 17.1236 58.9214 17.0156 58.3987 16.7997C57.8788 16.5838 57.4726 16.2642 57.18 15.8409C56.8902 15.4148 56.7382 14.8878 56.724 14.2599H58.5095C58.5294 14.5526 58.6132 14.7969 58.7609 14.9929C58.9115 15.1861 59.1118 15.3324 59.3618 15.4318C59.6146 15.5284 59.9001 15.5767 60.2183 15.5767C60.5308 15.5767 60.8021 15.5312 61.0322 15.4403C61.2652 15.3494 61.4456 15.223 61.5734 15.0611C61.7013 14.8991 61.7652 14.7131 61.7652 14.5028C61.7652 14.3068 61.7069 14.142 61.5905 14.0085C61.4768 13.875 61.3092 13.7614 61.0876 13.6676C60.8689 13.5739 60.6004 13.4886 60.2822 13.4119L59.3319 13.1733C58.5962 12.9943 58.0152 12.7145 57.589 12.3338C57.1629 11.9531 56.9513 11.4403 56.9541 10.7955C56.9513 10.267 57.0919 9.8054 57.376 9.41051C57.6629 9.01562 58.0564 8.70739 58.5564 8.4858C59.0564 8.2642 59.6246 8.15341 60.2609 8.15341C60.9087 8.15341 61.474 8.2642 61.9569 8.4858C62.4427 8.70739 62.8206 9.01562 63.0905 9.41051C63.3604 9.8054 63.4996 10.2628 63.5081 10.7827H61.7396Z" fill="#080808"/>
</svg>
