<svg width="100" height="100" viewBox="0 0 100 100" fill="none" xmlns="http://www.w3.org/2000/svg">
<rect width="100" height="100" rx="15" fill="white"/>
<path d="M27 26.5C27 20.1487 32.1487 15 38.5 15H50V38H38.5C32.1487 38 27 32.8513 27 26.5Z" fill="#FF3D3D"/>
<path d="M50 15H61.5C67.8513 15 73 20.1487 73 26.5C73 32.8513 67.8513 38 61.5 38H50V15Z" fill="#FE763C"/>
<path d="M50 49.5C50 43.1487 55.1487 38 61.5 38C67.8513 38 73 43.1487 73 49.5C73 55.8513 67.8513 61 61.5 61C55.1487 61 50 55.8513 50 49.5Z" fill="#09B8FF"/>
<path d="M27 49.5C27 43.1487 32.1487 38 38.5 38H50V61H38.5C32.1487 61 27 55.8513 27 49.5Z" fill="#8C55FF"/>
<path d="M27 72.5C27 66.1487 32.1487 61 38.5 61H50V72.5C50 78.8513 44.8513 84 38.5 84C32.1487 84 27 78.8513 27 72.5Z" fill="#2BCE75"/>
</svg>
