<svg width="100" height="100" viewBox="0 0 100 100" fill="none" xmlns="http://www.w3.org/2000/svg">
<rect width="100" height="100" rx="15" fill="white"/>
<path d="M22 20H79L77 77L50.5 89L24 77L22 20Z" fill="#E5532D"/>
<path d="M68.5 34H33L34 54.5H62L60.5 66L51.5 68.5L40.5 66V61.5H33L34 71L51.5 76L66.5 71L68.5 48H40.5L40 41.5H68.5V34Z" fill="white" stroke="white"/>
<path d="M32.7585 17V8.27273H34.6037V11.8736H38.3494V8.27273H40.1903V17H38.3494V13.3949H34.6037V17H32.7585ZM43.0593 9.79403V8.27273H50.2269V9.79403H47.555V17H45.7311V9.79403H43.0593ZM53.0873 8.27273H55.3628L57.7663 14.1364H57.8685L60.2719 8.27273H62.5475V17H60.7577V11.3196H60.6853L58.4268 16.9574H57.208L54.9495 11.2983H54.877V17H53.0873V8.27273ZM65.7477 17V8.27273H67.5929V15.4787H71.3344V17H65.7477Z" fill="#080808"/>
</svg>
