<svg width="100" height="100" viewBox="0 0 100 100" fill="none" xmlns="http://www.w3.org/2000/svg">
<rect width="100" height="100" rx="15" fill="white"/>
<rect x="10" y="10" width="80" height="80" rx="26" fill="#390808"/>
<path d="M34.0511 68H26.142L38.1932 33.0909H47.7045L59.7386 68H51.8295L43.0852 41.0682H42.8125L34.0511 68ZM33.5568 54.2784H52.2386V60.0398H33.5568V54.2784Z" fill="#FF9D08"/>
<path d="M60.8977 68V41.8182H68.1591V68H60.8977ZM64.5455 38.4432C63.4659 38.4432 62.5398 38.0852 61.767 37.3693C61.0057 36.642 60.625 35.7727 60.625 34.7614C60.625 33.7614 61.0057 32.9034 61.767 32.1875C62.5398 31.4602 63.4659 31.0966 64.5455 31.0966C65.625 31.0966 66.5455 31.4602 67.3068 32.1875C68.0795 32.9034 68.4659 33.7614 68.4659 34.7614C68.4659 35.7727 68.0795 36.642 67.3068 37.3693C66.5455 38.0852 65.625 38.4432 64.5455 38.4432Z" fill="#FF9D08"/>
</svg>
