<svg width="100" height="100" viewBox="0 0 100 100" fill="none" xmlns="http://www.w3.org/2000/svg">
<rect width="100" height="100" rx="15" fill="white"/>
<rect x="10" y="10" width="80" height="80" rx="26" fill="#F7E025"/>
<path d="M46.0114 44.0909H53.3068V68.4318C53.3068 70.6818 52.8011 72.6364 51.7898 74.2955C50.7898 75.9545 49.3977 77.233 47.6136 78.1307C45.8295 79.0284 43.7557 79.4773 41.392 79.4773C39.2898 79.4773 37.3807 79.108 35.6648 78.3693C33.9602 77.6193 32.608 76.483 31.608 74.9602C30.608 73.4261 30.1136 71.5 30.125 69.1818H37.4716C37.4943 70.1023 37.6818 70.892 38.0341 71.5511C38.3977 72.1989 38.892 72.6989 39.517 73.0511C40.1534 73.392 40.9034 73.5625 41.767 73.5625C42.6761 73.5625 43.4432 73.3693 44.0682 72.983C44.7045 72.5852 45.1875 72.0057 45.517 71.2443C45.8466 70.483 46.0114 69.5455 46.0114 68.4318V44.0909ZM74.5066 54.1307C74.3702 52.7557 73.785 51.6875 72.7509 50.9261C71.7168 50.1648 70.3134 49.7841 68.5407 49.7841C67.3361 49.7841 66.3191 49.9545 65.4895 50.2955C64.66 50.625 64.0236 51.0852 63.5805 51.6761C63.1486 52.267 62.9327 52.9375 62.9327 53.6875C62.91 54.3125 63.0407 54.858 63.3248 55.3239C63.6202 55.7898 64.0236 56.1932 64.535 56.5341C65.0464 56.8636 65.6373 57.1534 66.3077 57.4034C66.9782 57.642 67.6941 57.8466 68.4555 58.017L71.5918 58.767C73.1145 59.108 74.5123 59.5625 75.785 60.1307C77.0577 60.6989 78.16 61.3977 79.0918 62.2273C80.0236 63.0568 80.7452 64.0341 81.2566 65.1591C81.7793 66.2841 82.0464 67.5739 82.0577 69.0284C82.0464 71.1648 81.5009 73.017 80.4214 74.5852C79.3532 76.142 77.8077 77.3523 75.785 78.2159C73.7736 79.0682 71.3475 79.4943 68.5066 79.4943C65.6884 79.4943 63.2339 79.0625 61.143 78.1989C59.0634 77.3352 57.4384 76.0568 56.268 74.3636C55.1089 72.6591 54.5009 70.5511 54.4441 68.0398H61.5861C61.6657 69.2102 62.0009 70.1875 62.5918 70.9716C63.1941 71.7443 63.9952 72.3295 64.9952 72.7273C66.0066 73.1136 67.1486 73.3068 68.4214 73.3068C69.6714 73.3068 70.7566 73.125 71.677 72.7614C72.6089 72.3977 73.3305 71.892 73.8418 71.2443C74.3532 70.5966 74.6089 69.8523 74.6089 69.0114C74.6089 68.2273 74.3759 67.5682 73.91 67.0341C73.4555 66.5 72.785 66.0455 71.8986 65.6705C71.0236 65.2955 69.9498 64.9545 68.677 64.6477L64.8759 63.6932C61.9327 62.9773 59.6089 61.858 57.9043 60.3352C56.1998 58.8125 55.3532 56.7614 55.3645 54.1818C55.3532 52.0682 55.9157 50.2216 57.052 48.642C58.1998 47.0625 59.7736 45.8295 61.7736 44.9432C63.7736 44.0568 66.0464 43.6136 68.5918 43.6136C71.1827 43.6136 73.4441 44.0568 75.3759 44.9432C77.3191 45.8295 78.8305 47.0625 79.91 48.642C80.9895 50.2216 81.5464 52.0511 81.5805 54.1307H74.5066Z" fill="#080808"/>
</svg>
