<svg width="100" height="100" viewBox="0 0 100 100" fill="none" xmlns="http://www.w3.org/2000/svg">
<rect width="100" height="100" rx="15" fill="white"/>
<rect x="10" y="10" width="80" height="80" rx="26" fill="#122F48"/>
<path d="M23.8523 69L29.6477 34.0909H43.4205C46.0568 34.0909 48.2216 34.5966 49.9148 35.608C51.6193 36.608 52.8125 38 53.4943 39.7841C54.1875 41.5568 54.3466 43.6023 53.9716 45.9205C53.5852 48.25 52.7443 50.3011 51.4489 52.0739C50.1648 53.8352 48.4943 55.2102 46.4375 56.1989C44.3807 57.1875 42.0057 57.6818 39.3125 57.6818H30.5341L31.5057 51.767H39.0909C40.5227 51.767 41.7443 51.5227 42.7557 51.0341C43.7784 50.5341 44.5909 49.8466 45.1932 48.9716C45.7955 48.0852 46.1875 47.0682 46.3693 45.9205C46.5625 44.75 46.5 43.733 46.1818 42.8693C45.8636 42.0057 45.2784 41.3352 44.4261 40.858C43.5852 40.3693 42.4545 40.125 41.0341 40.125H36.0568L31.233 69H23.8523Z" fill="#66DBFB"/>
<path d="M75.5852 50.2841L68.9886 50.6932C68.9545 50.1136 68.7955 49.5966 68.5114 49.142C68.2386 48.6761 67.8352 48.3068 67.3011 48.0341C66.7784 47.7614 66.1193 47.625 65.3239 47.625C64.1307 47.625 63.0682 47.8977 62.1364 48.4432C61.2045 48.9886 60.6761 49.6875 60.5511 50.5398C60.4489 51.0852 60.5909 51.5455 60.9773 51.9205C61.3636 52.2955 62.142 52.6136 63.3125 52.875L67.9148 53.8295C70.3693 54.3523 72.142 55.2216 73.233 56.4375C74.3352 57.6534 74.7273 59.2443 74.4091 61.2102C74.125 62.8807 73.392 64.3409 72.2102 65.5909C71.0284 66.8295 69.5284 67.7955 67.7102 68.4886C65.892 69.1705 63.875 69.5114 61.6591 69.5114C58.1023 69.5114 55.3977 68.7841 53.5455 67.3295C51.6932 65.875 50.8011 63.9034 50.8693 61.4148L57.9602 61.0398C58.017 62.108 58.392 62.9148 59.0852 63.4602C59.7784 63.9943 60.7273 64.267 61.9318 64.2784C63.2841 64.3011 64.4318 64.0227 65.375 63.4432C66.3295 62.8523 66.8693 62.1364 66.9943 61.2955C67.0852 60.7045 66.9148 60.2273 66.483 59.8636C66.0625 59.5 65.2898 59.1989 64.1648 58.9602L59.8011 58.0568C57.3239 57.5455 55.5455 56.6307 54.4659 55.3125C53.3864 53.9943 53.017 52.3182 53.358 50.2841C53.6307 48.6591 54.3068 47.267 55.3864 46.108C56.4773 44.9375 57.8807 44.0398 59.5966 43.4148C61.3239 42.7898 63.2727 42.4773 65.4432 42.4773C68.8409 42.4773 71.3977 43.1761 73.1136 44.5739C74.8409 45.9716 75.6648 47.875 75.5852 50.2841Z" fill="#66DBFB"/>
</svg>
