<svg width="100" height="100" viewBox="0 0 100 100" fill="none" xmlns="http://www.w3.org/2000/svg">
<rect width="100" height="100" rx="15" fill="white"/>
<g filter="url(#filter0_i_141_104)">
<ellipse cx="49.9716" cy="49.8075" rx="47.5" ry="29.3618" transform="rotate(-3 49.9716 49.8075)" fill="#7B7FB5"/>
</g>
<mask id="path-3-outside-1_141_104" maskUnits="userSpaceOnUse" x="17.3309" y="28.7238" width="70.0526" height="44.5027" fill="black">
<rect fill="white" x="17.3309" y="28.7238" width="70.0526" height="44.5027"/>
<path d="M20.7943 71.3367L19.2243 41.3778L25.182 41.0656L25.3738 44.7254L25.6433 44.7112C25.8774 44.111 26.2291 43.4952 26.6986 42.8637C27.1771 42.2222 27.8123 41.6769 28.6043 41.2276C29.4052 40.7684 30.4156 40.5068 31.6355 40.4429C33.2243 40.3596 34.7119 40.6989 36.0983 41.4607C37.4843 42.2131 38.6228 43.4004 39.5138 45.0227C40.4044 46.6355 40.9151 48.6901 41.0459 51.1867C41.1733 53.6171 40.8884 55.6898 40.1912 57.4047C39.503 59.1098 38.51 60.4278 37.2122 61.3587C35.9235 62.2797 34.4516 62.7835 32.7967 62.8703C31.624 62.9317 30.6162 62.7901 29.7731 62.4455C28.9395 62.1004 28.2473 61.6484 27.6965 61.0893C27.1451 60.5208 26.7165 59.9411 26.4105 59.3502L26.2261 59.3599L26.8372 71.02L20.7943 71.3367ZM25.7104 51.962C25.7783 53.2575 26.0172 54.3782 26.4271 55.324C26.837 56.2697 27.3965 56.9943 28.1056 57.4976C28.8143 57.9915 29.6556 58.2129 30.6297 58.1619C31.6132 58.1103 32.4312 57.7972 33.0839 57.2225C33.736 56.6383 34.2117 55.8548 34.5111 54.8718C34.8194 53.879 34.9404 52.7489 34.8739 51.4817C34.808 50.224 34.5751 49.1267 34.1751 48.1899C33.7752 47.2531 33.2206 46.5331 32.5115 46.0297C31.8024 45.5264 30.9513 45.3007 29.9584 45.3528C28.9749 45.4043 28.1563 45.708 27.5027 46.2638C26.8585 46.8191 26.3818 47.5837 26.0725 48.5577C25.7632 49.5316 25.6425 50.6664 25.7104 51.962ZM47.831 49.0958L48.4912 61.6921L42.4483 62.0088L40.9258 32.9578L46.7985 32.65L47.3805 43.7569L47.6359 43.7436C48.0602 42.4317 48.8018 41.3829 49.8606 40.5972C50.9189 39.8021 52.2756 39.3612 53.9305 39.2745C55.4436 39.1952 56.7801 39.457 57.9402 40.06C59.1092 40.6531 60.038 41.5479 60.7265 42.7446C61.4241 43.9313 61.8127 45.376 61.8925 47.0787L62.6195 60.9517L56.5767 61.2684L55.9061 48.4735C55.8452 47.1301 55.45 46.103 54.7205 45.3921C54.0005 44.6807 53.0258 44.3572 51.7964 44.4216C50.9736 44.4648 50.2547 44.6779 49.6394 45.061C49.0336 45.4436 48.5686 45.98 48.2444 46.6703C47.9292 47.3506 47.7914 48.1591 47.831 49.0958ZM64.6077 69.0406L63.0376 39.0817L68.9953 38.7694L69.1871 42.4292L69.4566 42.4151C69.6907 41.8149 70.0425 41.199 70.5119 40.5675C70.9904 39.9261 71.6256 39.3807 72.4176 38.9315C73.2185 38.4723 74.2289 38.2107 75.4488 38.1468C77.0376 38.0635 78.5252 38.4028 79.9116 39.1646C81.2976 39.9169 82.4361 41.1042 83.3272 42.7265C84.2177 44.3393 84.7284 46.394 84.8592 48.8906C84.9866 51.3209 84.7017 53.3936 84.0045 55.1086C83.3163 56.8136 82.3233 58.1316 81.0256 59.0625C79.7368 59.9835 78.2649 60.4874 76.61 60.5741C75.4373 60.6356 74.4295 60.494 73.5864 60.1494C72.7528 59.8043 72.0606 59.3522 71.5098 58.7931C70.9584 58.2246 70.5298 57.6449 70.2238 57.0541L70.0394 57.0637L70.6505 68.7239L64.6077 69.0406ZM69.5237 49.6658C69.5916 50.9614 69.8305 52.0821 70.2404 53.0278C70.6503 53.9736 71.2098 54.6981 71.919 55.2015C72.6276 55.6953 73.4689 55.9168 74.443 55.8657C75.4265 55.8142 76.2445 55.5011 76.8972 54.9263C77.5493 54.3422 78.0251 53.5586 78.3244 52.5757C78.6327 51.5828 78.7537 50.4528 78.6872 49.1856C78.6213 47.9278 78.3884 46.8306 77.9884 45.8938C77.5885 44.957 77.0339 44.2369 76.3248 43.7336C75.6157 43.2302 74.7646 43.0046 73.7717 43.0566C72.7882 43.1081 71.9696 43.4118 71.316 43.9676C70.6718 44.5229 70.1951 45.2876 69.8858 46.2615C69.5765 47.2355 69.4558 48.3702 69.5237 49.6658Z"/>
</mask>
<path d="M20.7943 71.3367L19.2243 41.3778L25.182 41.0656L25.3738 44.7254L25.6433 44.7112C25.8774 44.111 26.2291 43.4952 26.6986 42.8637C27.1771 42.2222 27.8123 41.6769 28.6043 41.2276C29.4052 40.7684 30.4156 40.5068 31.6355 40.4429C33.2243 40.3596 34.7119 40.6989 36.0983 41.4607C37.4843 42.2131 38.6228 43.4004 39.5138 45.0227C40.4044 46.6355 40.9151 48.6901 41.0459 51.1867C41.1733 53.6171 40.8884 55.6898 40.1912 57.4047C39.503 59.1098 38.51 60.4278 37.2122 61.3587C35.9235 62.2797 34.4516 62.7835 32.7967 62.8703C31.624 62.9317 30.6162 62.7901 29.7731 62.4455C28.9395 62.1004 28.2473 61.6484 27.6965 61.0893C27.1451 60.5208 26.7165 59.9411 26.4105 59.3502L26.2261 59.3599L26.8372 71.02L20.7943 71.3367ZM25.7104 51.962C25.7783 53.2575 26.0172 54.3782 26.4271 55.324C26.837 56.2697 27.3965 56.9943 28.1056 57.4976C28.8143 57.9915 29.6556 58.2129 30.6297 58.1619C31.6132 58.1103 32.4312 57.7972 33.0839 57.2225C33.736 56.6383 34.2117 55.8548 34.5111 54.8718C34.8194 53.879 34.9404 52.7489 34.8739 51.4817C34.808 50.224 34.5751 49.1267 34.1751 48.1899C33.7752 47.2531 33.2206 46.5331 32.5115 46.0297C31.8024 45.5264 30.9513 45.3007 29.9584 45.3528C28.9749 45.4043 28.1563 45.708 27.5027 46.2638C26.8585 46.8191 26.3818 47.5837 26.0725 48.5577C25.7632 49.5316 25.6425 50.6664 25.7104 51.962ZM47.831 49.0958L48.4912 61.6921L42.4483 62.0088L40.9258 32.9578L46.7985 32.65L47.3805 43.7569L47.6359 43.7436C48.0602 42.4317 48.8018 41.3829 49.8606 40.5972C50.9189 39.8021 52.2756 39.3612 53.9305 39.2745C55.4436 39.1952 56.7801 39.457 57.9402 40.06C59.1092 40.6531 60.038 41.5479 60.7265 42.7446C61.4241 43.9313 61.8127 45.376 61.8925 47.0787L62.6195 60.9517L56.5767 61.2684L55.9061 48.4735C55.8452 47.1301 55.45 46.103 54.7205 45.3921C54.0005 44.6807 53.0258 44.3572 51.7964 44.4216C50.9736 44.4648 50.2547 44.6779 49.6394 45.061C49.0336 45.4436 48.5686 45.98 48.2444 46.6703C47.9292 47.3506 47.7914 48.1591 47.831 49.0958ZM64.6077 69.0406L63.0376 39.0817L68.9953 38.7694L69.1871 42.4292L69.4566 42.4151C69.6907 41.8149 70.0425 41.199 70.5119 40.5675C70.9904 39.9261 71.6256 39.3807 72.4176 38.9315C73.2185 38.4723 74.2289 38.2107 75.4488 38.1468C77.0376 38.0635 78.5252 38.4028 79.9116 39.1646C81.2976 39.9169 82.4361 41.1042 83.3272 42.7265C84.2177 44.3393 84.7284 46.394 84.8592 48.8906C84.9866 51.3209 84.7017 53.3936 84.0045 55.1086C83.3163 56.8136 82.3233 58.1316 81.0256 59.0625C79.7368 59.9835 78.2649 60.4874 76.61 60.5741C75.4373 60.6356 74.4295 60.494 73.5864 60.1494C72.7528 59.8043 72.0606 59.3522 71.5098 58.7931C70.9584 58.2246 70.5298 57.6449 70.2238 57.0541L70.0394 57.0637L70.6505 68.7239L64.6077 69.0406ZM69.5237 49.6658C69.5916 50.9614 69.8305 52.0821 70.2404 53.0278C70.6503 53.9736 71.2098 54.6981 71.919 55.2015C72.6276 55.6953 73.4689 55.9168 74.443 55.8657C75.4265 55.8142 76.2445 55.5011 76.8972 54.9263C77.5493 54.3422 78.0251 53.5586 78.3244 52.5757C78.6327 51.5828 78.7537 50.4528 78.6872 49.1856C78.6213 47.9278 78.3884 46.8306 77.9884 45.8938C77.5885 44.957 77.0339 44.2369 76.3248 43.7336C75.6157 43.2302 74.7646 43.0046 73.7717 43.0566C72.7882 43.1081 71.9696 43.4118 71.316 43.9676C70.6718 44.5229 70.1951 45.2876 69.8858 46.2615C69.5765 47.2355 69.4558 48.3702 69.5237 49.6658Z" fill="#080808"/>
<path d="M20.7943 71.3367L19.7957 71.3891L19.848 72.3877L20.8467 72.3354L20.7943 71.3367ZM19.2243 41.3778L19.1719 40.3792L18.1733 40.4315L18.2256 41.4302L19.2243 41.3778ZM25.182 41.0656L26.1806 41.0133L26.1283 40.0146L25.1297 40.067L25.182 41.0656ZM25.3738 44.7254L24.3752 44.7777L24.4275 45.7763L25.4261 45.724L25.3738 44.7254ZM25.6433 44.7112L25.6956 45.7099L26.3404 45.6761L26.575 45.0746L25.6433 44.7112ZM26.6986 42.8637L25.8971 42.2658L25.8961 42.2671L26.6986 42.8637ZM28.6043 41.2276L29.0977 42.0974L29.1017 42.0952L28.6043 41.2276ZM36.0983 41.4607L35.6168 42.3372L35.6212 42.3396L36.0983 41.4607ZM39.5138 45.0227L38.6374 45.5041L38.6384 45.506L39.5138 45.0227ZM40.1912 57.4047L39.2648 57.0282L39.2639 57.0304L40.1912 57.4047ZM37.2122 61.3587L37.7937 62.1723L37.7951 62.1712L37.2122 61.3587ZM29.7731 62.4455L29.3906 63.3695L29.3948 63.3712L29.7731 62.4455ZM27.6965 61.0893L26.9786 61.7855L26.9842 61.7911L27.6965 61.0893ZM26.4105 59.3502L27.2985 58.8904L27.002 58.3179L26.3582 58.3516L26.4105 59.3502ZM26.2261 59.3599L26.1738 58.3613L25.1751 58.4136L25.2275 59.4122L26.2261 59.3599ZM26.8372 71.02L26.8895 72.0187L27.8882 71.9663L27.8358 70.9677L26.8372 71.02ZM28.1056 57.4976L27.5268 58.3131L27.5339 58.318L28.1056 57.4976ZM33.0839 57.2225L33.7448 57.973L33.7511 57.9673L33.0839 57.2225ZM34.5111 54.8718L33.5561 54.5753L33.5545 54.5805L34.5111 54.8718ZM34.1751 48.1899L35.0948 47.7973L35.0948 47.7973L34.1751 48.1899ZM32.5115 46.0297L33.0903 45.2143L33.0903 45.2143L32.5115 46.0297ZM27.5027 46.2638L26.8549 45.5019L26.8498 45.5064L27.5027 46.2638ZM26.0725 48.5577L25.1194 48.255L25.1194 48.255L26.0725 48.5577ZM21.793 71.2844L20.2229 41.3255L18.2256 41.4302L19.7957 71.3891L21.793 71.2844ZM19.2766 42.3765L25.2343 42.0642L25.1297 40.067L19.1719 40.3792L19.2766 42.3765ZM24.1834 41.1179L24.3752 44.7777L26.3724 44.673L26.1806 41.0133L24.1834 41.1179ZM25.4261 45.724L25.6956 45.7099L25.591 43.7126L25.3215 43.7267L25.4261 45.724ZM26.575 45.0746C26.7704 44.5735 27.0736 44.0354 27.5012 43.4603L25.8961 42.2671C25.3847 42.955 24.9844 43.6486 24.7117 44.3479L26.575 45.0746ZM27.5002 43.4616C27.8852 42.9454 28.4096 42.4878 29.0977 42.0974L28.1108 40.3578C27.215 40.866 26.469 41.4991 25.8971 42.2658L27.5002 43.4616ZM29.1017 42.0952C29.7299 41.735 30.576 41.4998 31.6879 41.4415L31.5832 39.4443C30.2552 39.5139 29.0805 39.8019 28.1069 40.3601L29.1017 42.0952ZM31.6879 41.4415C33.0918 41.368 34.3944 41.6655 35.6168 42.3372L36.5799 40.5843C35.0293 39.7323 33.3567 39.3513 31.5832 39.4443L31.6879 41.4415ZM35.6212 42.3396C36.8112 42.9856 37.8223 44.0202 38.6374 45.5041L40.3903 44.5412C39.4233 42.7807 38.1573 41.4406 36.5754 40.5819L35.6212 42.3396ZM38.6384 45.506C39.4345 46.9478 39.9217 48.8425 40.0473 51.2391L42.0446 51.1344C41.9085 48.5378 41.3743 46.3231 40.3893 44.5393L38.6384 45.506ZM40.0473 51.2391C40.1693 53.567 39.8922 55.4848 39.2648 57.0282L41.1176 57.7813C41.8846 55.8947 42.1773 53.6672 42.0446 51.1344L40.0473 51.2391ZM39.2639 57.0304C38.6357 58.5869 37.7509 59.7416 36.6294 60.5461L37.7951 62.1712C39.2691 61.1139 40.3703 59.6327 41.1185 57.7791L39.2639 57.0304ZM36.6308 60.5451C35.5045 61.35 34.2181 61.7944 32.7443 61.8716L32.849 63.8689C34.6851 63.7727 36.3424 63.2094 37.7937 62.1723L36.6308 60.5451ZM32.7443 61.8716C31.6779 61.9275 30.8246 61.795 30.1515 61.5199L29.3948 63.3712C30.4078 63.7853 31.5702 63.9359 32.849 63.8689L32.7443 61.8716ZM30.1556 61.5216C29.4274 61.2201 28.8527 60.8379 28.4088 60.3874L26.9842 61.7911C27.642 62.4588 28.4517 62.9808 29.3906 63.3695L30.1556 61.5216ZM28.4143 60.3931C27.9184 59.8817 27.552 59.38 27.2985 58.8904L25.5225 59.8101C25.8809 60.5022 26.3718 61.1598 26.9786 61.7855L28.4143 60.3931ZM26.3582 58.3516L26.1738 58.3613L26.2784 60.3585L26.4628 60.3489L26.3582 58.3516ZM25.2275 59.4122L25.8386 71.0724L27.8358 70.9677L27.2247 59.3076L25.2275 59.4122ZM26.7849 70.0214L20.742 70.3381L20.8467 72.3354L26.8895 72.0187L26.7849 70.0214ZM24.7118 52.0143C24.7843 53.3994 25.0418 54.6423 25.5096 55.7216L27.3446 54.9263C26.9926 54.1141 26.7722 53.1157 26.709 51.9096L24.7118 52.0143ZM25.5096 55.7216C25.9785 56.8036 26.6432 57.6858 27.5268 58.3131L28.6845 56.6822C28.1499 56.3027 27.6955 55.7358 27.3446 54.9263L25.5096 55.7216ZM27.5339 58.318C28.4483 58.9553 29.5161 59.2216 30.682 59.1605L30.5773 57.1633C29.7952 57.2042 29.1803 57.0277 28.6774 56.6772L27.5339 58.318ZM30.682 59.1605C31.8591 59.0988 32.9008 58.7161 33.7448 57.973L32.423 56.472C31.9616 56.8783 31.3672 57.1219 30.5773 57.1633L30.682 59.1605ZM33.7511 57.9673C34.5614 57.2415 35.1245 56.2902 35.4677 55.1632L33.5545 54.5805C33.299 55.4194 32.9106 56.0351 32.4166 56.4776L33.7511 57.9673ZM35.4661 55.1684C35.8162 54.0409 35.9438 52.7894 35.8726 51.4294L33.8753 51.5341C33.9369 52.7085 33.8226 53.717 33.5561 54.5753L35.4661 55.1684ZM35.8726 51.4294C35.8019 50.0812 35.5503 48.8641 35.0948 47.7973L33.2554 48.5826C33.5999 49.3893 33.8141 50.3668 33.8753 51.5341L35.8726 51.4294ZM35.0948 47.7973C34.635 46.7203 33.9741 45.8415 33.0903 45.2143L31.9327 46.8452C32.4672 47.2246 32.9154 47.786 33.2554 48.5826L35.0948 47.7973ZM33.0903 45.2143C32.1716 44.5621 31.0901 44.2921 29.906 44.3541L30.0107 46.3514C30.8126 46.3094 31.4332 46.4906 31.9327 46.8452L33.0903 45.2143ZM29.906 44.3541C28.7373 44.4154 27.6997 44.7835 26.8549 45.502L28.1505 47.0256C28.6129 46.6324 29.2125 46.3932 30.0107 46.3514L29.906 44.3541ZM26.8498 45.5064C26.0394 46.2049 25.4734 47.1404 25.1194 48.255L27.0256 48.8604C27.2902 48.027 27.6776 47.4333 28.1556 47.0212L26.8498 45.5064ZM25.1194 48.255C24.7654 49.3698 24.6392 50.6296 24.7118 52.0143L26.709 51.9096C26.6458 50.7032 26.761 49.6934 27.0256 48.8604L25.1194 48.255ZM47.831 49.0958L46.8319 49.138L46.8324 49.1481L47.831 49.0958ZM48.4912 61.6921L48.5435 62.6908L49.5421 62.6384L49.4898 61.6398L48.4912 61.6921ZM42.4483 62.0088L41.4497 62.0612L41.502 63.0598L42.5007 63.0075L42.4483 62.0088ZM40.9258 32.9578L40.8735 31.9592L39.8749 32.0115L39.9272 33.0101L40.9258 32.9578ZM46.7985 32.65L47.7971 32.5977L47.7447 31.5991L46.7461 31.6514L46.7985 32.65ZM47.3805 43.7569L46.3819 43.8093L46.4343 44.8079L47.4329 44.7556L47.3805 43.7569ZM47.6359 43.7436L47.6882 44.7422L48.3755 44.7062L48.5873 44.0513L47.6359 43.7436ZM49.8606 40.5972L50.4565 41.4003L50.4613 41.3967L49.8606 40.5972ZM57.9402 40.06L57.4789 40.9474L57.4878 40.9518L57.9402 40.06ZM60.7265 42.7446L59.8597 43.2433L59.8644 43.2513L60.7265 42.7446ZM61.8925 47.0787L60.8935 47.1255L60.8938 47.131L61.8925 47.0787ZM62.6195 60.9517L62.6719 61.9503L63.6705 61.898L63.6181 60.8994L62.6195 60.9517ZM56.5767 61.2684L55.578 61.3207L55.6304 62.3194L56.629 62.267L56.5767 61.2684ZM55.9061 48.4735L54.9071 48.5188L54.9075 48.5258L55.9061 48.4735ZM54.7205 45.3921L54.0177 46.1035L54.0226 46.1083L54.7205 45.3921ZM49.6394 45.061L49.1108 44.2121L49.1054 44.2155L49.6394 45.061ZM48.2444 46.6703L47.3393 46.2452L47.3371 46.2499L48.2444 46.6703ZM46.8324 49.1481L47.4925 61.7445L49.4898 61.6398L48.8297 49.0435L46.8324 49.1481ZM48.4388 60.6935L42.396 61.0102L42.5007 63.0075L48.5435 62.6908L48.4388 60.6935ZM43.447 61.9565L41.9245 32.9055L39.9272 33.0101L41.4497 62.0612L43.447 61.9565ZM40.9782 33.9564L46.8508 33.6487L46.7461 31.6514L40.8735 31.9592L40.9782 33.9564ZM45.7998 32.7024L46.3819 43.8093L48.3792 43.7046L47.7971 32.5977L45.7998 32.7024ZM47.4329 44.7556L47.6882 44.7422L47.5835 42.7449L47.3282 42.7583L47.4329 44.7556ZM48.5873 44.0513C48.9507 42.9279 49.5728 42.056 50.4565 41.4003L49.2647 39.7942C48.0308 40.7098 47.1697 41.9355 46.6844 43.4358L48.5873 44.0513ZM50.4613 41.3967C51.3248 40.748 52.4763 40.3521 53.9828 40.2731L53.8782 38.2759C52.0748 38.3704 50.5131 38.8563 49.26 39.7977L50.4613 41.3967ZM53.9828 40.2731C55.3465 40.2016 56.5008 40.4389 57.479 40.9473L58.4014 39.1727C57.0595 38.4752 55.5406 38.1887 53.8782 38.2759L53.9828 40.2731ZM57.4878 40.9518C58.4739 41.4521 59.2627 42.2057 59.8598 43.2433L61.5933 42.2458C60.8132 40.8901 59.7444 39.854 58.3926 39.1682L57.4878 40.9518ZM59.8644 43.2513C60.4624 44.2686 60.8196 45.5469 60.8936 47.1255L62.8914 47.0319C62.8058 45.2051 62.3858 43.594 61.5886 42.2378L59.8644 43.2513ZM60.8938 47.131L61.6209 61.004L63.6181 60.8994L62.8911 47.0264L60.8938 47.131ZM62.5672 59.9531L56.5243 60.2698L56.629 62.267L62.6719 61.9503L62.5672 59.9531ZM57.5753 61.2161L56.9047 48.4211L54.9075 48.5258L55.578 61.3207L57.5753 61.2161ZM56.9051 48.4282C56.8364 46.9145 56.3819 45.6148 55.4184 44.6759L54.0226 46.1083C54.5181 46.5911 54.8539 47.3458 54.9071 48.5188L56.9051 48.4282ZM55.4233 44.6807C54.4607 43.7297 53.1886 43.3473 51.744 43.423L51.8487 45.4203C52.8629 45.3671 53.5402 45.6317 54.0177 46.1034L55.4233 44.6807ZM51.744 43.423C50.7759 43.4737 49.8883 43.728 49.1108 44.2121L50.168 45.9099C50.621 45.6277 51.1714 45.4558 51.8487 45.4203L51.744 43.423ZM49.1054 44.2155C48.3278 44.7066 47.7391 45.3939 47.3393 46.2452L49.1496 47.0954C49.3981 46.5661 49.7394 46.1806 50.1734 45.9065L49.1054 44.2155ZM47.3371 46.2499C46.9401 47.1066 46.7872 48.0811 46.8319 49.138L48.8301 49.0536C48.7956 48.2371 48.9183 47.5945 49.1518 47.0907L47.3371 46.2499ZM64.6077 69.0406L63.609 69.0929L63.6614 70.0915L64.66 70.0392L64.6077 69.0406ZM63.0376 39.0817L62.9852 38.0831L61.9866 38.1354L62.0389 39.134L63.0376 39.0817ZM68.9953 38.7694L69.9939 38.7171L69.9416 37.7185L68.943 37.7708L68.9953 38.7694ZM69.1871 42.4292L68.1885 42.4815L68.2408 43.4802L69.2394 43.4278L69.1871 42.4292ZM69.4566 42.4151L69.509 43.4137L70.1537 43.3799L70.3883 42.7784L69.4566 42.4151ZM70.5119 40.5675L69.7104 39.9696L69.7094 39.9709L70.5119 40.5675ZM72.4176 38.9315L72.911 39.8013L72.915 39.799L72.4176 38.9315ZM79.9116 39.1646L79.4301 40.041L79.4345 40.0434L79.9116 39.1646ZM83.3272 42.7265L82.4507 43.2079L82.4517 43.2099L83.3272 42.7265ZM84.0045 55.1086L83.0781 54.732L83.0772 54.7343L84.0045 55.1086ZM81.0256 59.0625L81.607 59.8761L81.6084 59.8751L81.0256 59.0625ZM73.5864 60.1494L73.2039 61.0733L73.2081 61.075L73.5864 60.1494ZM71.5098 58.7931L70.7919 59.4893L70.7975 59.495L71.5098 58.7931ZM70.2238 57.0541L71.1118 56.5942L70.8153 56.0217L70.1715 56.0554L70.2238 57.0541ZM70.0394 57.0637L69.9871 56.0651L68.9884 56.1174L69.0408 57.1161L70.0394 57.0637ZM70.6505 68.7239L70.7028 69.7225L71.7015 69.6702L71.6491 68.6715L70.6505 68.7239ZM71.919 55.2015L71.3401 56.0169L71.3472 56.0219L71.919 55.2015ZM76.8972 54.9263L77.5581 55.6768L77.5644 55.6712L76.8972 54.9263ZM78.3244 52.5757L77.3694 52.2791L77.3678 52.2844L78.3244 52.5757ZM77.9884 45.8938L78.9081 45.5011L78.9081 45.5011L77.9884 45.8938ZM76.3248 43.7336L76.9036 42.9181L76.9036 42.9181L76.3248 43.7336ZM71.316 43.9676L70.6682 43.2058L70.6631 43.2102L71.316 43.9676ZM69.8858 46.2615L68.9327 45.9588L68.9327 45.9588L69.8858 46.2615ZM65.6063 68.9882L64.0362 39.0293L62.0389 39.134L63.609 69.0929L65.6063 68.9882ZM63.0899 40.0803L69.0476 39.7681L68.943 37.7708L62.9852 38.0831L63.0899 40.0803ZM67.9967 38.8218L68.1885 42.4815L70.1857 42.3769L69.9939 38.7171L67.9967 38.8218ZM69.2394 43.4278L69.509 43.4137L69.4043 41.4164L69.1348 41.4306L69.2394 43.4278ZM70.3883 42.7784C70.5837 42.2774 70.8869 41.7392 71.3145 41.1642L69.7094 39.9709C69.198 40.6589 68.7977 41.3524 68.525 42.0517L70.3883 42.7784ZM71.3135 41.1654C71.6985 40.6493 72.2229 40.1916 72.911 39.8013L71.9242 38.0617C71.0283 38.5699 70.2823 39.2029 69.7104 39.9696L71.3135 41.1654ZM72.915 39.799C73.5432 39.4388 74.3893 39.2037 75.5012 39.1454L75.3965 37.1481C74.0685 37.2177 72.8938 37.5057 71.9202 38.0639L72.915 39.799ZM75.5012 39.1454C76.9051 39.0718 78.2077 39.3693 79.4301 40.041L80.3932 38.2882C78.8426 37.4362 77.17 37.0552 75.3965 37.1481L75.5012 39.1454ZM79.4345 40.0434C80.6245 40.6894 81.6356 41.724 82.4507 43.2079L84.2036 42.2451C83.2366 40.4845 81.9707 39.1445 80.3887 38.2857L79.4345 40.0434ZM82.4517 43.2099C83.2479 44.6516 83.735 46.5463 83.8606 48.9429L85.8579 48.8382C85.7218 46.2417 85.1876 44.027 84.2026 42.2431L82.4517 43.2099ZM83.8606 48.9429C83.9826 51.2708 83.7056 53.1887 83.0781 54.732L84.9309 55.4852C85.6979 53.5986 85.9906 51.371 85.8579 48.8382L83.8606 48.9429ZM83.0772 54.7343C82.449 56.2907 81.5642 57.4455 80.4427 58.25L81.6084 59.8751C83.0824 58.8177 84.1836 57.3365 84.9318 55.4829L83.0772 54.7343ZM80.4441 58.2489C79.3178 59.0538 78.0314 59.4982 76.5576 59.5755L76.6623 61.5727C78.4984 61.4765 80.1557 60.9132 81.607 59.8761L80.4441 58.2489ZM76.5576 59.5755C75.4912 59.6314 74.6379 59.4989 73.9648 59.2237L73.2081 61.075C74.2211 61.4891 75.3835 61.6398 76.6623 61.5727L76.5576 59.5755ZM73.969 59.2254C73.2407 58.9239 72.666 58.5418 72.2221 58.0913L70.7975 59.495C71.4553 60.1626 72.265 60.6846 73.2039 61.0733L73.969 59.2254ZM72.2276 58.097C71.7317 57.5856 71.3653 57.0838 71.1118 56.5942L69.3358 57.5139C69.6942 58.2061 70.1851 58.8636 70.7919 59.4893L72.2276 58.097ZM70.1715 56.0554L69.9871 56.0651L70.0917 58.0624L70.2762 58.0527L70.1715 56.0554ZM69.0408 57.1161L69.6519 68.7762L71.6491 68.6715L71.038 57.0114L69.0408 57.1161ZM70.5982 67.7252L64.5553 68.0419L64.66 70.0392L70.7028 69.7225L70.5982 67.7252ZM68.5251 49.7182C68.5976 51.1032 68.8551 52.3462 69.3229 53.4255L71.1579 52.6301C70.8059 51.8179 70.5855 50.8195 70.5223 49.6135L68.5251 49.7182ZM69.3229 53.4255C69.7918 54.5075 70.4565 55.3897 71.3401 56.0169L72.4978 54.386C71.9632 54.0065 71.5088 53.4396 71.1579 52.6301L69.3229 53.4255ZM71.3472 56.0219C72.2616 56.6592 73.3294 56.9255 74.4953 56.8644L74.3906 54.8671C73.6085 54.9081 72.9936 54.7315 72.4907 54.3811L71.3472 56.0219ZM74.4953 56.8644C75.6724 56.8027 76.7141 56.42 77.5581 55.6768L76.2363 54.1758C75.7749 54.5821 75.1805 54.8257 74.3906 54.8671L74.4953 56.8644ZM77.5644 55.6712C78.3747 54.9453 78.9378 53.994 79.281 52.867L77.3678 52.2844C77.1123 53.1232 76.7239 53.739 76.2299 54.1815L77.5644 55.6712ZM79.2794 52.8722C79.6295 51.7448 79.7572 50.4932 79.6859 49.1332L77.6886 49.2379C77.7502 50.4123 77.6359 51.4209 77.3694 52.2791L79.2794 52.8722ZM79.6859 49.1332C79.6152 47.785 79.3636 46.568 78.9081 45.5011L77.0688 46.2864C77.4132 47.0932 77.6274 48.0707 77.6886 49.2379L79.6859 49.1332ZM78.9081 45.5011C78.4483 44.4241 77.7874 43.5454 76.9036 42.9181L75.746 44.549C76.2805 44.9284 76.7287 45.4898 77.0688 46.2864L78.9081 45.5011ZM76.9036 42.9181C75.9849 42.266 74.9034 41.9959 73.7193 42.058L73.824 44.0552C74.6259 44.0132 75.2465 44.1945 75.746 44.549L76.9036 42.9181ZM73.7193 42.058C72.5506 42.1192 71.5131 42.4874 70.6682 43.2058L71.9638 44.7294C72.4262 44.3362 73.0258 44.0971 73.824 44.0552L73.7193 42.058ZM70.6631 43.2102C69.8527 43.9088 69.2867 44.8442 68.9327 45.9588L70.8389 46.5642C71.1035 45.7309 71.4909 45.1371 71.9689 44.725L70.6631 43.2102ZM68.9327 45.9588C68.5787 47.0737 68.4525 48.3334 68.5251 49.7182L70.5223 49.6135C70.4591 48.4071 70.5743 47.3973 70.8389 46.5642L68.9327 45.9588Z" fill="white" mask="url(#path-3-outside-1_141_104)"/>
<defs>
<filter id="filter0_i_141_104" x="2.51123" y="20.3792" width="98.9207" height="62.8567" filterUnits="userSpaceOnUse" color-interpolation-filters="sRGB">
<feFlood flood-opacity="0" result="BackgroundImageFix"/>
<feBlend mode="normal" in="SourceGraphic" in2="BackgroundImageFix" result="shape"/>
<feColorMatrix in="SourceAlpha" type="matrix" values="0 0 0 0 0 0 0 0 0 0 0 0 0 0 0 0 0 0 127 0" result="hardAlpha"/>
<feOffset dx="4" dy="4"/>
<feGaussianBlur stdDeviation="2"/>
<feComposite in2="hardAlpha" operator="arithmetic" k2="-1" k3="1"/>
<feColorMatrix type="matrix" values="0 0 0 0 0 0 0 0 0 0 0 0 0 0 0 0 0 0 0.25 0"/>
<feBlend mode="normal" in2="shape" result="effect1_innerShadow_141_104"/>
</filter>
</defs>
</svg>
