<svg width="100" height="100" viewBox="0 0 100 100" fill="none" xmlns="http://www.w3.org/2000/svg">
<rect width="100" height="100" rx="15" fill="white"/>
<path d="M32.7501 80.9211C34.6051 81.992 36.8376 81.5405 38.9029 80.5349C41.0251 79.5017 43.3702 77.7013 45.7925 75.3577C50.6523 70.6557 56.0776 63.5167 60.9594 55.0611C65.8412 46.6056 69.3111 38.3376 70.9533 31.7779C71.7718 28.5083 72.1584 25.5773 71.9921 23.2228C71.8303 20.9313 71.1051 18.7722 69.2501 17.7012C67.3951 16.6302 65.1626 17.0818 63.0973 18.0874C60.9751 19.1206 58.63 20.9209 56.2077 23.2645C51.3479 27.9666 45.9226 35.1056 41.0408 43.5611C36.159 52.0167 32.6891 60.2846 31.0469 66.8444C30.2284 70.1139 29.8418 73.045 30.0081 75.3995C30.1699 77.6909 30.8951 79.8501 32.7501 80.9211Z" stroke="#66DBFB" stroke-width="3"/>
<path d="M87.5 49.311C87.5 47.1691 85.9927 45.4615 84.0892 44.1756C82.1333 42.8544 79.4016 41.7236 76.1608 40.7977C69.6589 38.94 60.7636 37.811 51 37.811C41.2364 37.811 32.3411 38.94 25.8392 40.7977C22.5984 41.7236 19.8667 42.8544 17.9108 44.1756C16.0073 45.4615 14.5 47.1691 14.5 49.311C14.5 51.453 16.0073 53.1606 17.9108 54.4465C19.8667 55.7677 22.5984 56.8985 25.8392 57.8244C32.3411 59.6821 41.2364 60.811 51 60.811C60.7636 60.811 69.6589 59.6821 76.1608 57.8244C79.4016 56.8985 82.1333 55.7677 84.0892 54.4465C85.9927 53.1606 87.5 51.453 87.5 49.311Z" stroke="#66DBFB" stroke-width="3"/>
<path d="M70.0699 80.9208C71.9249 79.8498 72.6501 77.6907 72.8119 75.3992C72.9782 73.0447 72.5916 70.1137 71.7731 66.8441C70.1309 60.2844 66.661 52.0165 61.7792 43.5609C56.8974 35.1053 51.4721 27.9663 46.6123 23.2643C44.19 20.9207 41.8449 19.1204 39.7228 18.0871C37.6574 17.0815 35.4249 16.63 33.5699 17.701C31.7149 18.7719 30.9897 20.9311 30.8279 23.2225C30.6617 25.577 31.0482 28.5081 31.8667 31.7777C33.5089 38.3374 36.9788 46.6053 41.8606 55.0609C46.7425 63.5165 52.1678 70.6555 57.0276 75.3575C59.4498 77.7011 61.7949 79.5014 63.9171 80.5347C65.9825 81.5403 68.2149 81.9918 70.0699 80.9208Z" stroke="#66DBFB" stroke-width="3"/>
<circle cx="51.5" cy="49.5" r="6.5" fill="#66DBFB"/>
</svg>
