<svg width="100" height="100" viewBox="0 0 100 100" fill="none" xmlns="http://www.w3.org/2000/svg">
<rect width="100" height="100" rx="15" fill="white"/>
<rect x="10" y="10" width="80" height="80" rx="26" fill="#1C76B8"/>
<path d="M28.7045 50.1761V44.0909H57.375V50.1761H46.6875V79H39.392V50.1761H28.7045ZM76.2341 54.1307C76.0977 52.7557 75.5125 51.6875 74.4784 50.9261C73.4443 50.1648 72.0409 49.7841 70.2682 49.7841C69.0636 49.7841 68.0466 49.9545 67.217 50.2955C66.3875 50.625 65.7511 51.0852 65.308 51.6761C64.8761 52.267 64.6602 52.9375 64.6602 53.6875C64.6375 54.3125 64.7682 54.858 65.0523 55.3239C65.3477 55.7898 65.7511 56.1932 66.2625 56.5341C66.7739 56.8636 67.3648 57.1534 68.0352 57.4034C68.7057 57.642 69.4216 57.8466 70.183 58.017L73.3193 58.767C74.842 59.108 76.2398 59.5625 77.5125 60.1307C78.7852 60.6989 79.8875 61.3977 80.8193 62.2273C81.7511 63.0568 82.4727 64.0341 82.9841 65.1591C83.5068 66.2841 83.7739 67.5739 83.7852 69.0284C83.7739 71.1648 83.2284 73.017 82.1489 74.5852C81.0807 76.142 79.5352 77.3523 77.5125 78.2159C75.5011 79.0682 73.075 79.4943 70.2341 79.4943C67.4159 79.4943 64.9614 79.0625 62.8705 78.1989C60.7909 77.3352 59.1659 76.0568 57.9955 74.3636C56.8364 72.6591 56.2284 70.5511 56.1716 68.0398H63.3136C63.3932 69.2102 63.7284 70.1875 64.3193 70.9716C64.9216 71.7443 65.7227 72.3295 66.7227 72.7273C67.7341 73.1136 68.8761 73.3068 70.1489 73.3068C71.3989 73.3068 72.4841 73.125 73.4045 72.7614C74.3364 72.3977 75.058 71.892 75.5693 71.2443C76.0807 70.5966 76.3364 69.8523 76.3364 69.0114C76.3364 68.2273 76.1034 67.5682 75.6375 67.0341C75.183 66.5 74.5125 66.0455 73.6261 65.6705C72.7511 65.2955 71.6773 64.9545 70.4045 64.6477L66.6034 63.6932C63.6602 62.9773 61.3364 61.858 59.6318 60.3352C57.9273 58.8125 57.0807 56.7614 57.092 54.1818C57.0807 52.0682 57.6432 50.2216 58.7795 48.642C59.9273 47.0625 61.5011 45.8295 63.5011 44.9432C65.5011 44.0568 67.7739 43.6136 70.3193 43.6136C72.9102 43.6136 75.1716 44.0568 77.1034 44.9432C79.0466 45.8295 80.558 47.0625 81.6375 48.642C82.717 50.2216 83.2739 52.0511 83.308 54.1307H76.2341Z" fill="white"/>
</svg>
